<!-- Generated by IcoMoon.io -->
<svg version="1.1" xmlns="http://www.w3.org/2000/svg" width="224" height="448" viewBox="0 0 224 448">
<title></title>
<g id="icomoon-ignore">
</g>
<path d="M221.25 141.5c2.75 3 3.5 7.25 1.75 11l-135 289.25c-2 3.75-6 6.25-10.5 6.25-1 0-2.25-0.25-3.5-0.5-5.5-1.75-8.75-7-7.5-12.25l49.25-202-101.5 25.25c-1 0.25-2 0.25-3 0.25-2.75 0-5.75-1-7.75-2.75-3-2.5-4-6.25-3.25-9.75l50.25-206.25c1.25-4.75 5.75-8 11-8h82c6.25 0 11.25 4.75 11.25 10.5 0 1.5-0.5 3-1.25 4.5l-42.75 115.75 99-24.5c1-0.25 2-0.5 3-0.5 3.25 0 6.25 1.5 8.5 3.75z"></path>
</svg>
