<!-- Generated by IcoMoon.io -->
<svg version="1.1" xmlns="http://www.w3.org/2000/svg" width="384" height="448" viewBox="0 0 384 448">
<title></title>
<g id="icomoon-ignore">
</g>
<path d="M367 95c9.25 9.25 17 27.75 17 41v288c0 13.25-10.75 24-24 24h-336c-13.25 0-24-10.75-24-24v-400c0-13.25 10.75-24 24-24h224c13.25 0 31.75 7.75 41 17zM256 34v94h94c-1.5-4.25-3.75-8.5-5.5-10.25l-78.25-78.25c-1.75-1.75-6-4-10.25-5.5zM352 416v-256h-104c-13.25 0-24-10.75-24-24v-104h-192v384h320zM96 200c0-4.5 3.5-8 8-8h176c4.5 0 8 3.5 8 8v16c0 4.5-3.5 8-8 8h-176c-4.5 0-8-3.5-8-8v-16zM280 256c4.5 0 8 3.5 8 8v16c0 4.5-3.5 8-8 8h-176c-4.5 0-8-3.5-8-8v-16c0-4.5 3.5-8 8-8h176zM280 320c4.5 0 8 3.5 8 8v16c0 4.5-3.5 8-8 8h-176c-4.5 0-8-3.5-8-8v-16c0-4.5 3.5-8 8-8h176z"></path>
</svg>
